# xmcd
#
# Track frame offsets: 
#        150
#        15486
#        30344
#        54310
#        67058
#        87069
#        101423
#        117896
#        133043
#        151726
#        180667
#        194379
#        213594
#        229769
#        245953
#        261482
#
# Disc length: 3675 seconds
#
# Revision: 0
# Processed by: cddbd v1.5.2PL0 Copyright (c) Steve Scherf et al.
# Submitted via: ExactAudioCopy v0.99pb3
#
DISCID=d80e5910
DTITLE=Alabama - Mountain Music - The Best of ...
DYEAR=2009
DGENRE=Country
TTITLE0=If You're Gonna Play In Texas (You Gotta Have A Fiddle In The 
TTITLE0=Band)
TTITLE1=Born Country
TTITLE2=Dixieland Delight
TTITLE3=I'm In A Hurry (And Don't Know Why)
TTITLE4=Roll On (Eighteen Wheeler)
TTITLE5=Song Of The South
TTITLE6=Mountain Music
TTITLE7=Forty Hour Week (For A Livin')
TTITLE8=Angels Among Us
TTITLE9=My Home's In Alabama
TTITLE10=Tennessee River
TTITLE11=You've Got The Touch
TTITLE12=She And I
TTITLE13=Feels So Right
TTITLE14=Down Home
TTITLE15=Southern Star
EXTD=
EXTT0=
EXTT1=
EXTT2=
EXTT3=
EXTT4=
EXTT5=
EXTT6=
EXTT7=
EXTT8=
EXTT9=
EXTT10=
EXTT11=
EXTT12=
EXTT13=
EXTT14=
EXTT15=
PLAYORDER=
